<svg width="185" height="217" viewBox="0 0 185 217" fill="none" xmlns="http://www.w3.org/2000/svg">
<g clip-path="url(#clip0_1_216)">
<g filter="url(#filter0_i_1_216)">
<path fill-rule="evenodd" clip-rule="evenodd" d="M526.073 -3.30194C544.523 -81.5491 463.618 -53.8287 445.518 -94.7569C423.531 -144.474 501.288 -397.181 430.408 -417.22C305.92 -428.206 292.154 -261.137 237.476 -247.604C184.468 -234.484 97.9987 -207.866 55.5458 -173.505C14.9107 -140.615 -35.0761 -49.6226 39.3322 10.2173C96.2009 53.6077 126.949 33.8502 147.412 71.4971C169.079 111.36 178.261 160.217 216.215 185.059C257.348 211.982 311.762 226.009 358.009 209.341C403.021 193.118 417.907 139.218 447.582 101.672C475.353 66.5345 522.387 41.3385 526.073 -3.30194Z" fill="#162C4E"/>
</g>
</g>
<defs>
<filter id="filter0_i_1_216" x="1.04895" y="-417.739" width="527.741" height="638.275" filterUnits="userSpaceOnUse" color-interpolation-filters="sRGB">
<feFlood flood-opacity="0" result="BackgroundImageFix"/>
<feBlend mode="normal" in="SourceGraphic" in2="BackgroundImageFix" result="shape"/>
<feColorMatrix in="SourceAlpha" type="matrix" values="0 0 0 0 0 0 0 0 0 0 0 0 0 0 0 0 0 0 127 0" result="hardAlpha"/>
<feOffset dy="4"/>
<feGaussianBlur stdDeviation="15"/>
<feComposite in2="hardAlpha" operator="arithmetic" k2="-1" k3="1"/>
<feColorMatrix type="matrix" values="0 0 0 0 0 0 0 0 0 0 0 0 0 0 0 0 0 0 1 0"/>
<feBlend mode="normal" in2="shape" result="effect1_innerShadow_1_216"/>
</filter>
<clipPath id="clip0_1_216">
<rect width="531" height="637" fill="white" transform="translate(0 -420)"/>
</clipPath>
</defs>
</svg>
